<?xml version="1.0" encoding="utf-8"?>
<!-- Generator: Adobe Illustrator 23.0.0, SVG Export Plug-In . SVG Version: 6.00 Build 0)  -->
<svg version="1.1"
	 id="svg3476" xmlns:cc="http://creativecommons.org/ns#" xmlns:dc="http://purl.org/dc/elements/1.1/" xmlns:inkscape="http://www.inkscape.org/namespaces/inkscape" xmlns:rdf="http://www.w3.org/1999/02/22-rdf-syntax-ns#" xmlns:sodipodi="http://sodipodi.sourceforge.net/DTD/sodipodi-0.dtd" xmlns:svg="http://www.w3.org/2000/svg"
	 xmlns="http://www.w3.org/2000/svg" xmlns:xlink="http://www.w3.org/1999/xlink" x="0px" y="0px" viewBox="0 0 409.6 409.6"
	 style="enable-background:new 0 0 409.6 409.6;" xml:space="preserve">
<style type="text/css">
	.st0{fill:#264DE4;}
	.st1{fill:#2965F1;}
	.st2{fill:#EBEBEB;}
	.st3{fill:#FFFFFF;}
</style>
<sodipodi:namedview  bordercolor="#666666" borderopacity="1.0" fit-margin-bottom="0" fit-margin-left="0" fit-margin-right="0" fit-margin-top="0" id="base" inkscape:current-layer="layer1" inkscape:cx="181.367" inkscape:cy="256" inkscape:document-units="px" inkscape:pageopacity="0.0" inkscape:pageshadow="2" inkscape:window-height="704" inkscape:window-maximized="1" inkscape:window-width="1366" inkscape:window-x="0" inkscape:window-y="27" inkscape:zoom="0.35" pagecolor="#ffffff" showgrid="false">
	</sodipodi:namedview>
<g id="layer1" transform="translate(-193.633,-276.3622)" inkscape:groupmode="layer" inkscape:label="Calque 1">
	<g id="g3013" transform="translate(119,276.3622)">
		<polygon id="polygon2989" class="st0" points="424.5,80.5 398.1,376.7 279.3,409.6 160.7,376.7 134.3,80.5 		"/>
		<polygon id="polygon2991" class="st1" points="375.5,357.8 398,104.7 279.4,104.7 279.4,384.4 		"/>
		<polygon id="polygon2993" class="st2" points="194.9,214.6 198.1,250.9 279.4,250.9 279.4,214.6 		"/>
		<polygon id="polygon2995" class="st2" points="279.4,141 279.3,141 188.3,141 191.6,177.4 279.4,177.4 		"/>
		<polygon id="polygon2997" class="st2" points="279.4,346.7 279.4,308.9 279.3,309 238.8,298 236.2,269.1 216.6,269.1 199.8,269.1 
			204.8,326.1 279.3,346.8 		"/>
		<path id="path2999" inkscape:connector-curvature="0" d="M202.6,0h44v18.4H221v18.4h25.6v18.4h-44V0z"/>
		<path id="path3001" inkscape:connector-curvature="0" d="M255.4,0h44v16h-25.6v3.2h25.6V56h-44V39.2H281V36h-25.6V0z"/>
		<path id="path3003" inkscape:connector-curvature="0" d="M308.2,0h44v16h-25.6v3.2h25.6V56h-44V39.2h25.6V36h-25.6V0z"/>
		<polygon id="polygon3005" class="st3" points="324,250.9 319.8,298 279.3,309 279.3,346.7 353.8,326.1 354.3,320 362.9,224.3 
			363.8,214.6 370.3,141 279.3,141 279.3,177.4 330.5,177.4 327.2,214.6 279.3,214.6 279.3,250.9 		"/>
	</g>
</g>
</svg>
